<mxfile host="app.diagrams.net" modified="2020-10-20T20:51:43.988Z" agent="5.0 (Windows NT 10.0; Win64; x64) AppleWebKit/537.36 (KHTML, like Gecko) Chrome/86.0.4240.75 Safari/537.36 Edg/86.0.622.38" etag="Fe55KUpCiLMvrrBjgi1q" version="13.8.0" type="github">
  <diagram id="RDtPT-bHixlKmdcHidb1" name="Page-1">
    <mxGraphModel dx="782" dy="986" grid="1" gridSize="10" guides="1" tooltips="1" connect="1" arrows="1" fold="1" page="1" pageScale="1" pageWidth="850" pageHeight="1100" math="0" shadow="0">
      <root>
        <mxCell id="0" />
        <mxCell id="1" parent="0" />
        <mxCell id="EqA8bBB3nNrjbtlvsTNp-1" value="Benefits Kickoff Process" style="swimlane;html=1;childLayout=stackLayout;resizeParent=1;resizeParentMax=0;horizontal=1;startSize=20;horizontalStack=0;" parent="1" vertex="1">
          <mxGeometry x="160" y="30" width="740" height="600" as="geometry" />
        </mxCell>
        <mxCell id="EqA8bBB3nNrjbtlvsTNp-2" value="Portfolio Manager" style="swimlane;html=1;startSize=20;horizontal=0;" parent="EqA8bBB3nNrjbtlvsTNp-1" vertex="1">
          <mxGeometry y="20" width="740" height="250" as="geometry" />
        </mxCell>
        <mxCell id="EqA8bBB3nNrjbtlvsTNp-7" style="edgeStyle=orthogonalEdgeStyle;rounded=0;orthogonalLoop=1;jettySize=auto;html=1;exitX=1;exitY=0.5;exitDx=0;exitDy=0;entryX=0;entryY=0.5;entryDx=0;entryDy=0;" parent="EqA8bBB3nNrjbtlvsTNp-2" source="EqA8bBB3nNrjbtlvsTNp-5" target="mg1wNwwZSoMQqakspvtf-3" edge="1">
          <mxGeometry relative="1" as="geometry">
            <mxPoint x="155" y="65" as="targetPoint" />
          </mxGeometry>
        </mxCell>
        <mxCell id="EqA8bBB3nNrjbtlvsTNp-5" value="" style="shape=mxgraph.bpmn.shape;html=1;verticalLabelPosition=bottom;labelBackgroundColor=#ffffff;verticalAlign=top;align=center;perimeter=ellipsePerimeter;outlineConnect=0;outline=standard;symbol=general;" parent="EqA8bBB3nNrjbtlvsTNp-2" vertex="1">
          <mxGeometry x="45" y="40" width="50" height="50" as="geometry" />
        </mxCell>
        <mxCell id="mg1wNwwZSoMQqakspvtf-21" style="edgeStyle=orthogonalEdgeStyle;rounded=0;orthogonalLoop=1;jettySize=auto;html=1;exitX=1;exitY=0.5;exitDx=0;exitDy=0;entryX=1;entryY=0.5;entryDx=0;entryDy=0;" edge="1" parent="EqA8bBB3nNrjbtlvsTNp-2" source="mg1wNwwZSoMQqakspvtf-3" target="mg1wNwwZSoMQqakspvtf-2">
          <mxGeometry relative="1" as="geometry" />
        </mxCell>
        <mxCell id="mg1wNwwZSoMQqakspvtf-3" value="Identify all the technologies to use" style="shape=ext;rounded=1;html=1;whiteSpace=wrap;" vertex="1" parent="EqA8bBB3nNrjbtlvsTNp-2">
          <mxGeometry x="135" y="25" width="120" height="80" as="geometry" />
        </mxCell>
        <mxCell id="mg1wNwwZSoMQqakspvtf-18" style="edgeStyle=orthogonalEdgeStyle;rounded=0;orthogonalLoop=1;jettySize=auto;html=1;exitX=1;exitY=0.5;exitDx=0;exitDy=0;" edge="1" parent="EqA8bBB3nNrjbtlvsTNp-2" source="mg1wNwwZSoMQqakspvtf-15" target="mg1wNwwZSoMQqakspvtf-16">
          <mxGeometry relative="1" as="geometry" />
        </mxCell>
        <mxCell id="mg1wNwwZSoMQqakspvtf-15" value="Sort the projects in priorities and dependencies" style="shape=ext;rounded=1;html=1;whiteSpace=wrap;" vertex="1" parent="EqA8bBB3nNrjbtlvsTNp-2">
          <mxGeometry x="445" y="130" width="120" height="80" as="geometry" />
        </mxCell>
        <mxCell id="mg1wNwwZSoMQqakspvtf-2" value="Create the projects grouped by technologies to use" style="shape=ext;rounded=1;html=1;whiteSpace=wrap;" vertex="1" parent="EqA8bBB3nNrjbtlvsTNp-2">
          <mxGeometry x="135" y="130" width="120" height="80" as="geometry" />
        </mxCell>
        <mxCell id="mg1wNwwZSoMQqakspvtf-16" value="Create the Benefits Dependency Network" style="shape=ext;rounded=1;html=1;whiteSpace=wrap;" vertex="1" parent="EqA8bBB3nNrjbtlvsTNp-2">
          <mxGeometry x="595" y="130" width="120" height="80" as="geometry" />
        </mxCell>
        <mxCell id="mg1wNwwZSoMQqakspvtf-14" style="edgeStyle=orthogonalEdgeStyle;rounded=0;orthogonalLoop=1;jettySize=auto;html=1;exitX=1;exitY=0.588;exitDx=0;exitDy=0;entryX=0.5;entryY=1;entryDx=0;entryDy=0;exitPerimeter=0;" edge="1" parent="EqA8bBB3nNrjbtlvsTNp-1" source="mg1wNwwZSoMQqakspvtf-8" target="mg1wNwwZSoMQqakspvtf-9">
          <mxGeometry relative="1" as="geometry" />
        </mxCell>
        <mxCell id="mg1wNwwZSoMQqakspvtf-10" style="edgeStyle=orthogonalEdgeStyle;rounded=0;orthogonalLoop=1;jettySize=auto;html=1;exitX=0.5;exitY=1;exitDx=0;exitDy=0;" edge="1" parent="EqA8bBB3nNrjbtlvsTNp-1" source="mg1wNwwZSoMQqakspvtf-2" target="mg1wNwwZSoMQqakspvtf-5">
          <mxGeometry relative="1" as="geometry" />
        </mxCell>
        <mxCell id="mg1wNwwZSoMQqakspvtf-11" style="edgeStyle=orthogonalEdgeStyle;rounded=0;orthogonalLoop=1;jettySize=auto;html=1;exitX=0.5;exitY=1;exitDx=0;exitDy=0;entryX=0.5;entryY=0;entryDx=0;entryDy=0;" edge="1" parent="EqA8bBB3nNrjbtlvsTNp-1" source="mg1wNwwZSoMQqakspvtf-5" target="mg1wNwwZSoMQqakspvtf-6">
          <mxGeometry relative="1" as="geometry" />
        </mxCell>
        <mxCell id="mg1wNwwZSoMQqakspvtf-12" style="edgeStyle=orthogonalEdgeStyle;rounded=0;orthogonalLoop=1;jettySize=auto;html=1;exitX=1;exitY=0.5;exitDx=0;exitDy=0;entryX=0.25;entryY=1;entryDx=0;entryDy=0;" edge="1" parent="EqA8bBB3nNrjbtlvsTNp-1" source="mg1wNwwZSoMQqakspvtf-6" target="mg1wNwwZSoMQqakspvtf-7">
          <mxGeometry relative="1" as="geometry" />
        </mxCell>
        <mxCell id="mg1wNwwZSoMQqakspvtf-22" style="edgeStyle=orthogonalEdgeStyle;rounded=0;orthogonalLoop=1;jettySize=auto;html=1;exitX=0.5;exitY=0;exitDx=0;exitDy=0;entryX=0.5;entryY=1;entryDx=0;entryDy=0;" edge="1" parent="EqA8bBB3nNrjbtlvsTNp-1" source="mg1wNwwZSoMQqakspvtf-9" target="mg1wNwwZSoMQqakspvtf-15">
          <mxGeometry relative="1" as="geometry" />
        </mxCell>
        <mxCell id="mg1wNwwZSoMQqakspvtf-20" style="edgeStyle=orthogonalEdgeStyle;rounded=0;orthogonalLoop=1;jettySize=auto;html=1;exitX=0.5;exitY=1;exitDx=0;exitDy=0;entryX=0.5;entryY=0;entryDx=0;entryDy=0;" edge="1" parent="EqA8bBB3nNrjbtlvsTNp-1" source="mg1wNwwZSoMQqakspvtf-16" target="mg1wNwwZSoMQqakspvtf-19">
          <mxGeometry relative="1" as="geometry" />
        </mxCell>
        <mxCell id="mg1wNwwZSoMQqakspvtf-23" style="edgeStyle=orthogonalEdgeStyle;rounded=0;orthogonalLoop=1;jettySize=auto;html=1;exitX=0.75;exitY=1;exitDx=0;exitDy=0;entryX=0.5;entryY=0;entryDx=0;entryDy=0;" edge="1" parent="EqA8bBB3nNrjbtlvsTNp-1" source="mg1wNwwZSoMQqakspvtf-7" target="mg1wNwwZSoMQqakspvtf-8">
          <mxGeometry relative="1" as="geometry" />
        </mxCell>
        <mxCell id="mg1wNwwZSoMQqakspvtf-25" style="edgeStyle=orthogonalEdgeStyle;rounded=0;orthogonalLoop=1;jettySize=auto;html=1;exitX=0.5;exitY=1;exitDx=0;exitDy=0;entryX=0.5;entryY=0;entryDx=0;entryDy=0;" edge="1" parent="EqA8bBB3nNrjbtlvsTNp-1" source="mg1wNwwZSoMQqakspvtf-19" target="mg1wNwwZSoMQqakspvtf-24">
          <mxGeometry relative="1" as="geometry" />
        </mxCell>
        <mxCell id="EqA8bBB3nNrjbtlvsTNp-3" value="Business Analyst" style="swimlane;html=1;startSize=20;horizontal=0;" parent="EqA8bBB3nNrjbtlvsTNp-1" vertex="1">
          <mxGeometry y="270" width="740" height="180" as="geometry" />
        </mxCell>
        <mxCell id="mg1wNwwZSoMQqakspvtf-19" value="Establish the Benefits Realization Roadmap based on features and time" style="shape=ext;rounded=1;html=1;whiteSpace=wrap;" vertex="1" parent="EqA8bBB3nNrjbtlvsTNp-3">
          <mxGeometry x="595" y="50" width="120" height="80" as="geometry" />
        </mxCell>
        <mxCell id="mg1wNwwZSoMQqakspvtf-7" value="Calculate the deadline using the costs and budget" style="shape=ext;rounded=1;html=1;whiteSpace=wrap;" vertex="1" parent="EqA8bBB3nNrjbtlvsTNp-3">
          <mxGeometry x="295" y="50" width="120" height="80" as="geometry" />
        </mxCell>
        <mxCell id="mg1wNwwZSoMQqakspvtf-9" value="Gather the documents to form the Benefits Realization Plan" style="shape=ext;rounded=1;html=1;whiteSpace=wrap;" vertex="1" parent="EqA8bBB3nNrjbtlvsTNp-3">
          <mxGeometry x="445" y="50" width="120" height="80" as="geometry" />
        </mxCell>
        <mxCell id="mg1wNwwZSoMQqakspvtf-5" value="Establish the costs per project using the Resource Estimations" style="shape=ext;rounded=1;html=1;whiteSpace=wrap;" vertex="1" parent="EqA8bBB3nNrjbtlvsTNp-3">
          <mxGeometry x="135" y="50" width="120" height="80" as="geometry" />
        </mxCell>
        <mxCell id="EqA8bBB3nNrjbtlvsTNp-4" value="Benefits Manager" style="swimlane;html=1;startSize=20;horizontal=0;" parent="EqA8bBB3nNrjbtlvsTNp-1" vertex="1">
          <mxGeometry y="450" width="740" height="150" as="geometry" />
        </mxCell>
        <mxCell id="mg1wNwwZSoMQqakspvtf-24" value="" style="shape=mxgraph.bpmn.shape;html=1;verticalLabelPosition=bottom;labelBackgroundColor=#ffffff;verticalAlign=top;align=center;perimeter=ellipsePerimeter;outlineConnect=0;outline=end;symbol=general;" vertex="1" parent="EqA8bBB3nNrjbtlvsTNp-4">
          <mxGeometry x="630" y="47" width="50" height="50" as="geometry" />
        </mxCell>
        <mxCell id="mg1wNwwZSoMQqakspvtf-8" value="Create the Acceptance Criteria document per project" style="shape=ext;rounded=1;html=1;whiteSpace=wrap;" vertex="1" parent="EqA8bBB3nNrjbtlvsTNp-4">
          <mxGeometry x="345" y="40" width="120" height="80" as="geometry" />
        </mxCell>
        <mxCell id="mg1wNwwZSoMQqakspvtf-6" value="Create the Productivity Metrics document per project" style="shape=ext;rounded=1;html=1;whiteSpace=wrap;" vertex="1" parent="EqA8bBB3nNrjbtlvsTNp-4">
          <mxGeometry x="135" y="40" width="120" height="80" as="geometry" />
        </mxCell>
      </root>
    </mxGraphModel>
  </diagram>
</mxfile>
